<svg xmlns="http://www.w3.org/2000/svg" viewBox="0 0 640 480"><path fill="#b22234" d="M0 0h640v480H0z"/><path fill="#fff" d="M0 36.92h640v36.92H0z"/><path fill="#fff" d="M0 110.77h640v36.92H0z"/><path fill="#fff" d="M0 184.62h640v36.92H0z"/><path fill="#fff" d="M0 258.46h640v36.92H0z"/><path fill="#fff" d="M0 332.31h640v36.92H0z"/><path fill="#fff" d="M0 406.15h640v36.92H0z"/><path fill="#3c3b6e" d="M0 0h364.80v258.46H0z"/><defs><path id="s" fill="#fff" d="M0.00,-12.00 2.69,-3.71 11.41,-3.71 4.36,1.42 7.05,9.71 0.00,4.58 -7.05,9.71 -4.36,1.42 -11.41,-3.71 -2.69,-3.71Z"/></defs><use href="#s" x="30.40" y="25.85"/><use href="#s" x="91.20" y="25.85"/><use href="#s" x="152.00" y="25.85"/><use href="#s" x="212.80" y="25.85"/><use href="#s" x="273.60" y="25.85"/><use href="#s" x="334.40" y="25.85"/><use href="#s" x="60.80" y="51.69"/><use href="#s" x="121.60" y="51.69"/><use href="#s" x="182.40" y="51.69"/><use href="#s" x="243.20" y="51.69"/><use href="#s" x="304.00" y="51.69"/><use href="#s" x="30.40" y="77.54"/><use href="#s" x="91.20" y="77.54"/><use href="#s" x="152.00" y="77.54"/><use href="#s" x="212.80" y="77.54"/><use href="#s" x="273.60" y="77.54"/><use href="#s" x="334.40" y="77.54"/><use href="#s" x="60.80" y="103.38"/><use href="#s" x="121.60" y="103.38"/><use href="#s" x="182.40" y="103.38"/><use href="#s" x="243.20" y="103.38"/><use href="#s" x="304.00" y="103.38"/><use href="#s" x="30.40" y="129.23"/><use href="#s" x="91.20" y="129.23"/><use href="#s" x="152.00" y="129.23"/><use href="#s" x="212.80" y="129.23"/><use href="#s" x="273.60" y="129.23"/><use href="#s" x="334.40" y="129.23"/><use href="#s" x="60.80" y="155.08"/><use href="#s" x="121.60" y="155.08"/><use href="#s" x="182.40" y="155.08"/><use href="#s" x="243.20" y="155.08"/><use href="#s" x="304.00" y="155.08"/><use href="#s" x="30.40" y="180.92"/><use href="#s" x="91.20" y="180.92"/><use href="#s" x="152.00" y="180.92"/><use href="#s" x="212.80" y="180.92"/><use href="#s" x="273.60" y="180.92"/><use href="#s" x="334.40" y="180.92"/><use href="#s" x="60.80" y="206.77"/><use href="#s" x="121.60" y="206.77"/><use href="#s" x="182.40" y="206.77"/><use href="#s" x="243.20" y="206.77"/><use href="#s" x="304.00" y="206.77"/><use href="#s" x="30.40" y="232.62"/><use href="#s" x="91.20" y="232.62"/><use href="#s" x="152.00" y="232.62"/><use href="#s" x="212.80" y="232.62"/><use href="#s" x="273.60" y="232.62"/><use href="#s" x="334.40" y="232.62"/></svg>