<svg xmlns="http://www.w3.org/2000/svg" width="400" height="320" viewBox="0 0 400 320" fill="none" role="img" aria-labelledby="fg-state-no-notifications-dark-title fg-state-no-notifications-dark-description" class="fg-state-no-notifications-dark">
  <title id="fg-state-no-notifications-dark-title">No notifications</title>
  <desc id="fg-state-no-notifications-dark-description">A quiet bell, its lip lit.</desc>
  <defs>
    <linearGradient id="fg-state-no-notifications-dark-cy" x1="0" y1="0" x2="1" y2="0"><stop stop-color="#121215"/><stop offset="1" stop-color="#0f0f12"/></linearGradient>
    <linearGradient id="fg-state-no-notifications-dark-lip" gradientUnits="userSpaceOnUse" x1="200" y1="224.3" x2="200" y2="237.9"><stop offset="0" stop-color="#f4f4f5" stop-opacity="0.25"/><stop offset="1" stop-color="#f4f4f5" stop-opacity="0.26"/></linearGradient>

  </defs>
  <style>
    .fg-state-no-notifications-dark { stroke-linecap: round; stroke-linejoin: round; }
    .fg-state-no-notifications-dark path { vector-effect: non-scaling-stroke; }
    .fg-state-no-notifications-dark .t { fill: #0c0c0f; }
    .fg-state-no-notifications-dark .l { fill: #121215; }
    .fg-state-no-notifications-dark .r { fill: #0f0f12; }
    .fg-state-no-notifications-dark .hole { fill: #060607; }
    .fg-state-no-notifications-dark .cy { fill: url(#fg-state-no-notifications-dark-cy); }
    .fg-state-no-notifications-dark .af { fill: #bdbdc5; }
    .fg-state-no-notifications-dark .kf { fill: #8e8e97; }
    .fg-state-no-notifications-dark .eo { fill-rule: evenodd; }
    .fg-state-no-notifications-dark .o { stroke: #a1a1aa; stroke-width: 1.35; }
    .fg-state-no-notifications-dark .o2 { stroke: #71717a; stroke-width: 1.1; }
    .fg-state-no-notifications-dark .e { stroke: #3f3f46; stroke-width: 1; }
    .fg-state-no-notifications-dark .d { stroke: #71717a; stroke-width: 1.2; stroke-dasharray: 0 3; }
    .fg-state-no-notifications-dark .dh { stroke: #3f3f46; stroke-width: 1.2; stroke-dasharray: 0 3; }
    .fg-state-no-notifications-dark .g { stroke: #71717a; stroke-width: 1; stroke-dasharray: 3 3; }
    .fg-state-no-notifications-dark .k { stroke: #8e8e97; stroke-width: 1.2; }
    .fg-state-no-notifications-dark .ka, .fg-state-no-notifications-dark .oa { stroke: #bdbdc5; stroke-width: 1.35; }
    .fg-state-no-notifications-dark .da { stroke: #bdbdc5; stroke-width: 1.2; stroke-dasharray: 0 3; }
    .fg-state-no-notifications-dark .ga { stroke: #bdbdc5; stroke-width: 1; stroke-dasharray: 3 3; }
  </style>
  <path class="cy" d="M200 53.1L203.1 53.2L206.8 53.5L210.1 54L213.5 54.8L217 55.7L220 56.8L223 58L226.1 59.6L228.9 61.2L231.7 63.1L234.4 65.1L236.8 67.2L238.9 69.3L241 71.9L242.9 74.4L244.6 77.1L246.1 80.1L247.5 83.3L248.1 85.1L248.6 86.7L249.3 89.9L249.7 92.5L249.9 95L250 106.2L250.4 114.5L250.9 121.1L251.7 127.5L252.3 131.2L252.9 134.7L253.7 138.2L254.5 141.7L255.4 145.1L256.4 148.4L257.4 151.5L258.6 154.8L259.8 158L261.2 161.1L262.6 164.2L264.1 167.2L265.7 170L267.4 172.9L269.2 175.7L270.9 178.3L272.6 180.6L274.4 182.9L276.1 185L278 187.2L281.4 190.7L286.6 195.7L289.6 198.9L291 200.7L292.4 202.5L293.7 204.4L294.9 206.4L296 208.6L297 210.7L300.4 218.9L301.4 221.7L302.1 224.3L302.7 227L303 229.7L303.1 232.3L302.9 235.7L302.5 238.9L301.7 242.2L300.6 245.5L299.3 248.4L297.8 251.2L296.6 253.3L293 258.8L291.1 261.3L289 263.9L286.8 266.3L284.3 268.7L281.7 271L278.9 273.2L275.8 275.4L272.6 277.4L269 279.5L265.2 281.5L261.3 283.3L257.3 285L253 286.7L248.7 288.1L244.2 289.5L239.6 290.7L235 291.8L230.1 292.8L225.2 293.6L220.4 294.3L215.9 294.7L210.6 295.1L205.3 295.4L200 295.5L200 295.5L194.7 295.4L189.4 295.1L184.1 294.7L179.6 294.3L174.8 293.6L169.9 292.8L165 291.8L160.4 290.7L155.8 289.5L151.3 288.1L147 286.7L142.7 285L138.7 283.3L134.8 281.5L131 279.5L127.4 277.4L124.2 275.4L121.1 273.2L118.3 271L115.7 268.7L113.2 266.3L111 263.9L108.9 261.3L107 258.8L103.4 253.3L102.2 251.2L100.7 248.4L99.4 245.5L98.3 242.2L97.5 238.9L97.1 235.7L96.9 232.3L97 229.7L97.3 227L97.9 224.3L98.6 221.7L99.6 218.9L103 210.7L104 208.6L105.1 206.4L106.3 204.4L107.6 202.5L109 200.7L110.4 198.9L113.4 195.7L118.6 190.7L122 187.2L123.9 185L125.6 182.9L127.4 180.6L129.1 178.3L130.8 175.7L132.6 172.9L134.3 170L135.9 167.2L137.4 164.2L138.8 161.1L140.2 158L141.4 154.8L142.6 151.5L143.6 148.4L144.6 145.1L145.5 141.7L146.3 138.2L147.1 134.7L147.7 131.2L148.3 127.5L149.1 121.1L149.6 114.5L150 106.2L150.1 95L150.3 92.5L150.7 89.9L151.4 86.7L151.9 85.1L152.5 83.3L153.9 80.1L155.4 77.1L157.1 74.4L159 71.9L161.1 69.3L163.2 67.2L165.6 65.1L168.3 63.1L171.1 61.2L173.9 59.6L177 58L180 56.8L183 55.7L186.5 54.8L189.9 54L193.2 53.5L196.9 53.2L200 53.1Z"/>
  <path class="e" d="M284.7 193.8C297.3 205.5 302.3 219.4 298.6 233C295 246.6 283.1 259 265 268C246.9 277 223.8 281.9 200 281.9C176.2 281.9 153.1 277 135 268C116.9 259 105 246.6 101.4 233C97.7 219.4 102.7 205.5 115.3 193.8"/>
  <path class="o" d="M200 53.1L203.1 53.2L206.8 53.5L210.1 54L213.5 54.8L217 55.7L220 56.8L223 58L226.1 59.6L228.9 61.2L231.7 63.1L234.4 65.1L236.8 67.2L238.9 69.3L241 71.9L242.9 74.4L244.6 77.1L246.1 80.1L247.5 83.3L248.1 85.1L248.6 86.7L249.3 89.9L249.7 92.5L249.9 95L250 106.2L250.4 114.5L250.9 121.1L251.7 127.5L252.3 131.2L252.9 134.7L253.7 138.2L254.5 141.7L255.4 145.1L256.4 148.4L257.4 151.5L258.6 154.8L259.8 158L261.2 161.1L262.6 164.2L264.1 167.2L265.7 170L267.4 172.9L269.2 175.7L270.9 178.3L272.6 180.6L274.4 182.9L276.1 185L278 187.2L281.4 190.7L286.6 195.7L289.6 198.9L291 200.7L292.4 202.5L293.7 204.4L294.9 206.4L296 208.6L297 210.7L300.4 218.9L301.4 221.7L302.1 224.3L302.7 227L303 229.7L303.1 232.3L302.9 235.7L302.5 238.9L301.7 242.2L300.6 245.5L299.3 248.4L297.8 251.2L296.6 253.3L293 258.8L291.1 261.3L289 263.9L286.8 266.3L284.3 268.7L281.7 271L278.9 273.2L275.8 275.4L272.6 277.4L269 279.5L265.2 281.5L261.3 283.3L257.3 285L253 286.7L248.7 288.1L244.2 289.5L239.6 290.7L235 291.8L230.1 292.8L225.2 293.6L220.4 294.3L215.9 294.7L210.6 295.1L205.3 295.4L200 295.5L200 295.5L194.7 295.4L189.4 295.1L184.1 294.7L179.6 294.3L174.8 293.6L169.9 292.8L165 291.8L160.4 290.7L155.8 289.5L151.3 288.1L147 286.7L142.7 285L138.7 283.3L134.8 281.5L131 279.5L127.4 277.4L124.2 275.4L121.1 273.2L118.3 271L115.7 268.7L113.2 266.3L111 263.9L108.9 261.3L107 258.8L103.4 253.3L102.2 251.2L100.7 248.4L99.4 245.5L98.3 242.2L97.5 238.9L97.1 235.7L96.9 232.3L97 229.7L97.3 227L97.9 224.3L98.6 221.7L99.6 218.9L103 210.7L104 208.6L105.1 206.4L106.3 204.4L107.6 202.5L109 200.7L110.4 198.9L113.4 195.7L118.6 190.7L122 187.2L123.9 185L125.6 182.9L127.4 180.6L129.1 178.3L130.8 175.7L132.6 172.9L134.3 170L135.9 167.2L137.4 164.2L138.8 161.1L140.2 158L141.4 154.8L142.6 151.5L143.6 148.4L144.6 145.1L145.5 141.7L146.3 138.2L147.1 134.7L147.7 131.2L148.3 127.5L149.1 121.1L149.6 114.5L150 106.2L150.1 95L150.3 92.5L150.7 89.9L151.4 86.7L151.9 85.1L152.5 83.3L153.9 80.1L155.4 77.1L157.1 74.4L159 71.9L161.1 69.3L163.2 67.2L165.6 65.1L168.3 63.1L171.1 61.2L173.9 59.6L177 58L180 56.8L183 55.7L186.5 54.8L189.9 54L193.2 53.5L196.9 53.2L200 53.1Z"/>
  <path fill="url(#fg-state-no-notifications-dark-lip)" d="M300.2 236.1C300.6 248.5 294.1 260.6 281.7 270.7C269.3 280.7 251.7 288.3 231.3 292.1C211 296 189 296 168.7 292.1C148.3 288.3 130.7 280.7 118.3 270.7C105.9 260.6 99.4 248.5 99.8 236.1L100.2 223.2C99.8 235.5 106.3 247.6 118.6 257.6C131 267.7 148.6 275.2 168.8 279C189.1 282.9 210.9 282.9 231.2 279C251.4 275.2 269 267.7 281.4 257.6C293.7 247.6 300.2 235.5 299.8 223.2Z"/>
  <path class="oa" d="M300.2 236.1C300.6 248.5 294.1 260.6 281.7 270.7C269.3 280.7 251.7 288.3 231.3 292.1C211 296 189 296 168.7 292.1C148.3 288.3 130.7 280.7 118.3 270.7C105.9 260.6 99.4 248.5 99.8 236.1L100.2 223.2C99.8 235.5 106.3 247.6 118.6 257.6C131 267.7 148.6 275.2 168.8 279C189.1 282.9 210.9 282.9 231.2 279C251.4 275.2 269 267.7 281.4 257.6C293.7 247.6 300.2 235.5 299.8 223.2Z"/>
  <path class="t" d="M219.3 56.2L219 52.3L218 48L216.4 43.7L214.3 39.5L211.8 35.5L208.8 32L205.5 29L202 26.6L198.4 24.9L194.6 24L190.7 24.2L187.2 25.5L184.2 27.9L182.2 31.2L181 34.9L180.6 38.9L181 43.2L182 47.5L183.6 51.8L185.7 56L188.2 59.9L191.2 63.5L194.5 66.5L198 68.9L201.6 70.6L205.4 71.5L209.3 71.3L212.8 70L215.8 67.6L217.8 64.3L219 60.6L219.3 56.9L219.2 55.4L218.4 54L217.2 53L215.7 52.5L214.1 52.7L212.7 53.4L211.7 54.7L211.2 56.2L211 59.1L210.4 61L209.6 62.2L208.8 62.9L207.7 63.3L206.3 63.4L204.3 62.9L202 61.9L199.6 60.2L197.1 57.9L194.8 55.1L192.7 51.9L191 48.6L189.8 45.2L189 41.9L188.8 38.9L189 36.4L189.6 34.5L190.4 33.3L191.2 32.5L192.3 32.2L193.7 32.1L195.7 32.6L198 33.6L200.4 35.3L202.9 37.6L205.2 40.4L207.3 43.5L209 46.9L210.2 50.3L211 53.6L211.2 56.9L218.9 54.7L217.9 53.5L216.5 52.7L215 52.5L213.4 52.9L212.2 53.9L211.4 55.3Z"/>
  <path class="o2" d="M219.3 56.2L219 52.3L218 48L216.4 43.7L214.3 39.5L211.8 35.5L208.8 32L205.5 29L202 26.6L198.4 24.9L194.6 24L190.7 24.2L187.2 25.5L184.2 27.9L182.2 31.2L181 34.9L180.6 38.9L181 43.2L182 47.5L183.6 51.8L185.7 56L188.2 59.9L191.2 63.5L194.5 66.5L198 68.9L201.6 70.6L205.4 71.5L209.3 71.3L212.8 70L215.8 67.6L217.8 64.3L219 60.6L219.3 56.9L219.2 55.4L218.4 54L217.2 53L215.7 52.5L214.1 52.7L212.7 53.4L211.7 54.7L211.2 56.2L211 59.1L210.4 61L209.6 62.2L208.8 62.9L207.7 63.3L206.3 63.4L204.3 62.9L202 61.9L199.6 60.2L197.1 57.9L194.8 55.1L192.7 51.9L191 48.6L189.8 45.2L189 41.9L188.8 38.9L189 36.4L189.6 34.5L190.4 33.3L191.2 32.5L192.3 32.2L193.7 32.1L195.7 32.6L198 33.6L200.4 35.3L202.9 37.6L205.2 40.4L207.3 43.5L209 46.9L210.2 50.3L211 53.6L211.2 56.9L218.9 54.7L217.9 53.5L216.5 52.7L215 52.5L213.4 52.9L212.2 53.9L211.4 55.3Z"/>
</svg>
