<svg xmlns="http://www.w3.org/2000/svg" width="400" height="320" viewBox="0 0 400 320" fill="none" role="img" aria-labelledby="fg-inspection-dark-title fg-inspection-dark-description" class="fg-inspection-dark">
  <title id="fg-inspection-dark-title">Inspection</title>
  <desc id="fg-inspection-dark-description">An inspection report on its clipboard, a magnifier resting on it.</desc>
  <defs>
    <linearGradient id="fg-inspection-dark-cy" x1="0" y1="0" x2="1" y2="0"><stop stop-color="#121215"/><stop offset="1" stop-color="#0f0f12"/></linearGradient>
    <linearGradient id="fg-inspection-dark-lens" gradientUnits="userSpaceOnUse" x1="180" y1="162.8" x2="180" y2="213.2"><stop offset="0" stop-color="#f4f4f5" stop-opacity="0.09"/><stop offset="1" stop-color="#f4f4f5" stop-opacity="0.03"/></linearGradient>

  </defs>
  <style>
    .fg-inspection-dark { stroke-linecap: round; stroke-linejoin: round; }
    .fg-inspection-dark path { vector-effect: non-scaling-stroke; }
    .fg-inspection-dark .t { fill: #0c0c0f; }
    .fg-inspection-dark .l { fill: #121215; }
    .fg-inspection-dark .r { fill: #0f0f12; }
    .fg-inspection-dark .hole { fill: #060607; }
    .fg-inspection-dark .cy { fill: url(#fg-inspection-dark-cy); }
    .fg-inspection-dark .af { fill: #bdbdc5; }
    .fg-inspection-dark .kf { fill: #8e8e97; }
    .fg-inspection-dark .eo { fill-rule: evenodd; }
    .fg-inspection-dark .o { stroke: #a1a1aa; stroke-width: 1.35; }
    .fg-inspection-dark .o2 { stroke: #71717a; stroke-width: 1.1; }
    .fg-inspection-dark .e { stroke: #3f3f46; stroke-width: 1; }
    .fg-inspection-dark .d { stroke: #71717a; stroke-width: 1.2; stroke-dasharray: 0 3; }
    .fg-inspection-dark .dh { stroke: #3f3f46; stroke-width: 1.2; stroke-dasharray: 0 3; }
    .fg-inspection-dark .g { stroke: #71717a; stroke-width: 1; stroke-dasharray: 3 3; }
    .fg-inspection-dark .k { stroke: #8e8e97; stroke-width: 1.2; }
    .fg-inspection-dark .ka, .fg-inspection-dark .oa { stroke: #bdbdc5; stroke-width: 1.35; }
    .fg-inspection-dark .da { stroke: #bdbdc5; stroke-width: 1.2; stroke-dasharray: 0 3; }
    .fg-inspection-dark .ga { stroke: #bdbdc5; stroke-width: 1; stroke-dasharray: 3 3; }
  </style>
  <path class="r" d="M376 142.3C376 144.1 374.8 145.8 372.5 147.1L185.8 254.9C183.6 256.2 180.6 256.9 177.5 256.9L177.5 264.6C180.6 264.6 183.6 263.9 185.8 262.6L372.5 154.8C374.8 153.5 376 151.8 376 150Z"/>
  <path class="l" d="M177.5 256.9C174.4 256.9 171.4 256.2 169.2 254.9L27.5 173.1C25.2 171.8 24 170.1 24 168.3L24 176C24 177.8 25.2 179.5 27.5 180.8L169.2 262.6C171.4 263.9 174.4 264.6 177.5 264.6Z"/>
  <path class="t" d="M24 168.3C24 166.5 25.2 164.7 27.5 163.5L214.2 55.7C216.4 54.4 219.4 53.7 222.5 53.7C225.6 53.7 228.6 54.4 230.8 55.7L372.5 137.5C374.8 138.8 376 140.5 376 142.3C376 144.1 374.8 145.8 372.5 147.1L185.8 254.9C183.6 256.2 180.6 256.9 177.5 256.9C174.4 256.9 171.4 256.2 169.2 254.9L27.5 173.1C25.2 171.8 24 170.1 24 168.3Z"/>
  <path class="e" d="M376 142.3C376 144.1 374.8 145.8 372.5 147.1L185.8 254.9C183.6 256.2 180.6 256.9 177.5 256.9C174.4 256.9 171.4 256.2 169.2 254.9L27.5 173.1C25.2 171.8 24 170.1 24 168.3M177.5 256.9L177.5 264.6M24 168.3L24 176"/>
  <path class="o" d="M24 168.3C24 166.5 25.2 164.7 27.5 163.5L214.2 55.7C216.4 54.4 219.4 53.7 222.5 53.7C225.6 53.7 228.6 54.4 230.8 55.7L372.5 137.5C374.8 138.8 376 140.5 376 142.3L376 150C376 151.8 374.8 153.5 372.5 154.8L185.8 262.6C183.6 263.9 180.6 264.6 177.5 264.6C174.4 264.6 171.4 263.9 169.2 262.6L27.5 180.8C25.2 179.5 24 177.8 24 176Z"/>
  <path class="r" d="M341.1 150C341.1 150.5 340.7 151.1 340 151.4L180 243.8C179.3 244.2 178.4 244.4 177.5 244.4L177.5 246.4C178.4 246.4 179.3 246.1 180 245.8L340 153.4C340.7 153 341.1 152.5 341.1 151.9Z"/>
  <path class="l" d="M177.5 244.4C176.6 244.4 175.7 244.2 175 243.8L43.3 167.8C42.6 167.4 42.3 166.9 42.3 166.4L42.3 168.3C42.3 168.8 42.6 169.3 43.3 169.7L175 245.8C175.7 246.1 176.6 246.4 177.5 246.4Z"/>
  <path class="t" d="M42.3 166.4C42.3 165.8 42.6 165.3 43.3 164.9L203.3 72.5C204 72.1 204.9 71.9 205.8 71.9C206.8 71.9 207.7 72.1 208.3 72.5L340 148.5C340.7 148.9 341.1 149.5 341.1 150C341.1 150.5 340.7 151.1 340 151.4L180 243.8C179.3 244.2 178.4 244.4 177.5 244.4C176.6 244.4 175.7 244.2 175 243.8L43.3 167.8C42.6 167.4 42.3 166.9 42.3 166.4Z"/>
  <path class="e" d="M341.1 150C341.1 150.5 340.7 151.1 340 151.4L180 243.8C179.3 244.2 178.4 244.4 177.5 244.4C176.6 244.4 175.7 244.2 175 243.8L43.3 167.8C42.6 167.4 42.3 166.9 42.3 166.4M177.5 244.4L177.5 246.4M42.3 166.4L42.3 168.3"/>
  <path class="o2" d="M42.3 166.4C42.3 165.8 42.6 165.3 43.3 164.9L203.3 72.5C204 72.1 204.9 71.9 205.8 71.9C206.8 71.9 207.7 72.1 208.3 72.5L340 148.5C340.7 148.9 341.1 149.5 341.1 150L341.1 151.9C341.1 152.5 340.7 153 340 153.4L180 245.8C179.3 246.1 178.4 246.4 177.5 246.4C176.6 246.4 175.7 246.1 175 245.8L43.3 169.7C42.6 169.3 42.3 168.8 42.3 168.3Z"/>
  <path class="r" d="M329.3 104.3C329.3 105.2 328.6 106 327.5 106.7L315.9 113.4C314.8 114.1 313.3 114.4 311.7 114.4L311.7 126C313.3 126 314.8 125.6 315.9 125L327.5 118.2C328.6 117.6 329.3 116.7 329.3 115.8Z"/>
  <path class="l" d="M311.7 114.4C310.1 114.4 308.6 114.1 307.5 113.4L252.5 81.7C251.4 81 250.8 80.2 250.8 79.2L250.8 90.8C250.8 91.7 251.4 92.6 252.5 93.2L307.5 125C308.6 125.6 310.1 126 311.7 126Z"/>
  <path class="t" d="M250.8 79.2C250.8 78.3 251.4 77.5 252.5 76.8L264.2 70.1C265.3 69.5 266.8 69.1 268.4 69.1C269.9 69.1 271.4 69.5 272.5 70.1L327.5 101.9C328.6 102.5 329.3 103.4 329.3 104.3C329.3 105.2 328.6 106 327.5 106.7L315.9 113.4C314.8 114.1 313.3 114.4 311.7 114.4C310.1 114.4 308.6 114.1 307.5 113.4L252.5 81.7C251.4 81 250.8 80.2 250.8 79.2Z"/>
  <path class="e" d="M329.3 104.3C329.3 105.2 328.6 106 327.5 106.7L315.9 113.4C314.8 114.1 313.3 114.4 311.7 114.4C310.1 114.4 308.6 114.1 307.5 113.4L252.5 81.7C251.4 81 250.8 80.2 250.8 79.2M311.7 114.4L311.7 126M250.8 79.2L250.8 90.8"/>
  <path class="o2" d="M250.8 79.2C250.8 78.3 251.4 77.5 252.5 76.8L264.2 70.1C265.3 69.5 266.8 69.1 268.4 69.1C269.9 69.1 271.4 69.5 272.5 70.1L327.5 101.9C328.6 102.5 329.3 103.4 329.3 104.3L329.3 115.8C329.3 116.7 328.6 117.6 327.5 118.2L315.9 125C314.8 125.6 313.3 126 311.7 126C310.1 126 308.6 125.6 307.5 125L252.5 93.2C251.4 92.6 250.8 91.7 250.8 90.8Z"/>
  <path class="k" d="M208.4 95.6L208.4 91.7C208.4 91 207.5 90.5 206.4 90.5L202.5 90.5C201.4 90.5 200.5 91 200.5 91.7L200.5 95.6M196.6 108.7L212.3 108.7M214.3 91.7L208.4 91.7M200.5 91.7C194 91.7 188.7 94.7 188.7 98.5L188.7 110.9M188.7 103L196.6 103M212.3 99.6C212.3 97.1 208.8 95.1 204.5 95.1C200.1 95.1 196.6 97.1 196.6 99.6L196.6 110.9C196.6 112.2 198.4 113.2 200.5 113.2L208.4 113.2C210.6 113.2 212.3 112.2 212.3 110.9Z"/>
  <path class="e" d="M234.2 112.5L300.9 151M219.2 121.1L265.9 148.1"/>
  <path class="o2" d="M160 134.1C159.3 134.5 158.4 134.7 157.5 134.7C156.6 134.7 155.7 134.5 155 134.1L143.3 127.4C142.7 127 142.3 126.5 142.3 125.9C142.3 125.4 142.7 124.9 143.3 124.5L155 117.7C155.7 117.4 156.6 117.2 157.5 117.2C158.4 117.2 159.3 117.4 160 117.7L171.7 124.5C172.3 124.9 172.7 125.4 172.7 125.9C172.7 126.5 172.3 127 171.7 127.4L160 134.1Z"/>
  <path class="k" d="M166.1 122.2L154.2 129L148.8 125.9"/>
  <path class="e" d="M174.2 135.6L244.2 176"/>
  <path class="o2" d="M130 151.4C129.3 151.8 128.4 152 127.5 152C126.5 152 125.6 151.8 125 151.4L113.3 144.7C112.6 144.3 112.3 143.8 112.3 143.3C112.3 142.7 112.6 142.2 113.3 141.8L125 135.1C125.6 134.7 126.5 134.5 127.5 134.5C128.4 134.5 129.3 134.7 130 135.1L141.7 141.8C142.3 142.2 142.7 142.7 142.7 143.3C142.7 143.8 142.3 144.3 141.7 144.7L130 151.4Z"/>
  <path class="k" d="M136.1 139.5L124.2 146.4L118.8 143.3"/>
  <path class="e" d="M144.2 152.9L197.5 183.7"/>
  <path class="o2" d="M100 168.8C99.3 169.1 98.4 169.4 97.5 169.4C96.5 169.4 95.6 169.1 95 168.8L83.3 162C82.6 161.6 82.3 161.1 82.3 160.6C82.3 160 82.6 159.5 83.3 159.1L95 152.4C95.6 152 96.5 151.8 97.5 151.8C98.4 151.8 99.3 152 100 152.4L111.6 159.1C112.3 159.5 112.7 160 112.7 160.6C112.7 161.1 112.3 161.6 111.6 162L100 168.8Z"/>
  <path class="e" d="M114.1 170.2L150.8 191.4"/>
  <path class="r" d="M236.6 188C236.6 196.7 230.6 205 220 211.1C209.4 217.2 195 220.7 180 220.7L180 230.3C195 230.3 209.4 226.9 220 220.7C230.6 214.6 236.6 206.3 236.6 197.6Z"/>
  <path class="l" d="M180 220.7C165 220.7 150.6 217.2 140 211.1C129.4 205 123.4 196.7 123.4 188L123.4 197.6C123.4 206.3 129.4 214.6 140 220.7C150.6 226.9 165 230.3 180 230.3Z"/>
  <path class="t eo" d="M123.4 188C123.4 179.3 129.4 171 140 164.9C150.6 158.8 165 155.3 180 155.3C195 155.3 209.4 158.8 220 164.9C230.6 171 236.6 179.3 236.6 188C236.6 196.7 230.6 205 220 211.1C209.4 217.2 195 220.7 180 220.7C165 220.7 150.6 217.2 140 211.1C129.4 205 123.4 196.7 123.4 188ZM210.8 205.8C202.7 210.5 191.6 213.2 180 213.2C168.4 213.2 157.3 210.5 149.2 205.8C141 201.1 136.4 194.7 136.4 188C136.4 181.3 141 174.9 149.2 170.2C157.3 165.5 168.4 162.8 180 162.8C191.6 162.8 202.7 165.5 210.8 170.2C219 174.9 223.6 181.3 223.6 188C223.6 194.7 219 201.1 210.8 205.8Z"/>
  <path fill="url(#fg-inspection-dark-lens)" d="M210.8 205.8C202.7 210.5 191.6 213.2 180 213.2C168.4 213.2 157.3 210.5 149.2 205.8C141 201.1 136.4 194.7 136.4 188C136.4 181.3 141 174.9 149.2 170.2C157.3 165.5 168.4 162.8 180 162.8C191.6 162.8 202.7 165.5 210.8 170.2C219 174.9 223.6 181.3 223.6 188C223.6 194.7 219 201.1 210.8 205.8Z"/>
  <path class="e" d="M236.6 188C236.6 196.7 230.6 205 220 211.1C209.4 217.2 195 220.7 180 220.7C165 220.7 150.6 217.2 140 211.1C129.4 205 123.4 196.7 123.4 188"/>
  <path class="oa" d="M210.8 205.8C202.7 210.5 191.6 213.2 180 213.2C168.4 213.2 157.3 210.5 149.2 205.8C141 201.1 136.4 194.7 136.4 188C136.4 181.3 141 174.9 149.2 170.2C157.3 165.5 168.4 162.8 180 162.8C191.6 162.8 202.7 165.5 210.8 170.2C219 174.9 223.6 181.3 223.6 188C223.6 194.7 219 201.1 210.8 205.8Z"/>
  <path class="o" d="M123.4 188C123.4 179.3 129.4 171 140 164.9C150.6 158.8 165 155.3 180 155.3C195 155.3 209.4 158.8 220 164.9C230.6 171 236.6 179.3 236.6 188L236.6 197.6C236.6 206.3 230.6 214.6 220 220.7C209.4 226.9 195 230.3 180 230.3C165 230.3 150.6 226.9 140 220.7C129.4 214.6 123.4 206.3 123.4 197.6Z"/>
  <path class="r" d="M302.3 247.7C302.3 249.3 301.2 250.9 299.2 252L294.2 254.9C292.2 256.1 289.5 256.7 286.7 256.7L286.7 266.3C289.5 266.3 292.2 265.7 294.2 264.5L299.2 261.6C301.2 260.5 302.3 258.9 302.3 257.3Z"/>
  <path class="l" d="M286.7 256.7C283.9 256.7 281.2 256.1 279.2 254.9L214.2 217.4C212.2 216.2 211.1 214.7 211.1 213L211.1 222.7C211.1 224.3 212.2 225.8 214.2 227L279.2 264.5C281.2 265.7 283.9 266.3 286.7 266.3Z"/>
  <path class="t" d="M211.1 213C211.1 211.4 212.2 209.9 214.2 208.7L219.2 205.8C221.2 204.7 223.9 204 226.7 204C229.5 204 232.2 204.7 234.2 205.8L299.2 243.4C301.2 244.5 302.3 246.1 302.3 247.7C302.3 249.3 301.2 250.9 299.2 252L294.2 254.9C292.2 256.1 289.5 256.7 286.7 256.7C283.9 256.7 281.2 256.1 279.2 254.9L214.2 217.4C212.2 216.2 211.1 214.7 211.1 213Z"/>
  <path class="e" d="M302.3 247.7C302.3 249.3 301.2 250.9 299.2 252L294.2 254.9C292.2 256.1 289.5 256.7 286.7 256.7C283.9 256.7 281.2 256.1 279.2 254.9L214.2 217.4C212.2 216.2 211.1 214.7 211.1 213M286.7 256.7L286.7 266.3M211.1 213L211.1 222.7"/>
  <path class="o" d="M211.1 213C211.1 211.4 212.2 209.9 214.2 208.7L219.2 205.8C221.2 204.7 223.9 204 226.7 204C229.5 204 232.2 204.7 234.2 205.8L299.2 243.4C301.2 244.5 302.3 246.1 302.3 247.7L302.3 257.3C302.3 258.9 301.2 260.5 299.2 261.6L294.2 264.5C292.2 265.7 289.5 266.3 286.7 266.3C283.9 266.3 281.2 265.7 279.2 264.5L214.2 227C212.2 225.8 211.1 224.3 211.1 222.7Z"/>
</svg>
