<svg xmlns="http://www.w3.org/2000/svg" width="400" height="320" viewBox="0 0 400 320" fill="none" role="img" aria-labelledby="fg-maintenance-dark-title fg-maintenance-dark-description" class="fg-maintenance-dark">
  <title id="fg-maintenance-dark-title">Maintenance</title>
  <desc id="fg-maintenance-dark-description">A service gear with a wrench, circled by a recurrence arrow.</desc>
  <defs>
    <linearGradient id="fg-maintenance-dark-cy" x1="0" y1="0" x2="1" y2="0"><stop stop-color="#121215"/><stop offset="1" stop-color="#0f0f12"/></linearGradient>


  </defs>
  <style>
    .fg-maintenance-dark { stroke-linecap: round; stroke-linejoin: round; }
    .fg-maintenance-dark path { vector-effect: non-scaling-stroke; }
    .fg-maintenance-dark .t { fill: #0c0c0f; }
    .fg-maintenance-dark .l { fill: #121215; }
    .fg-maintenance-dark .r { fill: #0f0f12; }
    .fg-maintenance-dark .hole { fill: #060607; }
    .fg-maintenance-dark .cy { fill: url(#fg-maintenance-dark-cy); }
    .fg-maintenance-dark .af { fill: #bdbdc5; }
    .fg-maintenance-dark .kf { fill: #8e8e97; }
    .fg-maintenance-dark .eo { fill-rule: evenodd; }
    .fg-maintenance-dark .o { stroke: #a1a1aa; stroke-width: 1.35; }
    .fg-maintenance-dark .o2 { stroke: #71717a; stroke-width: 1.1; }
    .fg-maintenance-dark .e { stroke: #3f3f46; stroke-width: 1; }
    .fg-maintenance-dark .d { stroke: #71717a; stroke-width: 1.2; stroke-dasharray: 0 3; }
    .fg-maintenance-dark .dh { stroke: #3f3f46; stroke-width: 1.2; stroke-dasharray: 0 3; }
    .fg-maintenance-dark .g { stroke: #71717a; stroke-width: 1; stroke-dasharray: 3 3; }
    .fg-maintenance-dark .k { stroke: #8e8e97; stroke-width: 1.2; }
    .fg-maintenance-dark .ka, .fg-maintenance-dark .oa { stroke: #bdbdc5; stroke-width: 1.35; }
    .fg-maintenance-dark .da { stroke: #bdbdc5; stroke-width: 1.2; stroke-dasharray: 0 3; }
    .fg-maintenance-dark .ga { stroke: #bdbdc5; stroke-width: 1; stroke-dasharray: 3 3; }
  </style>
  <path class="ga" d="M31.6 133.8C42.6 110.1 68.1 89.5 103.5 75.9C138.8 62.3 181.5 56.5 223.7 59.7C265.8 62.9 304.5 74.9 332.5 93.3C360.5 111.8 376 135.5 376 160C376 184.5 360.5 208.2 332.5 226.7C304.5 245.1 265.8 257.1 223.7 260.3C181.5 263.5 138.8 257.7 103.5 244.1C68.1 230.5 42.6 209.9 31.6 186.2"/>
  <path class="oa" d="M24 198.5L31.6 186.2L48.8 194.7"/>
  <path class="r" d="M262.7 85L257.1 97.7L257.1 118.6L262.7 106Z"/>
  <path class="o" d="M262.7 85L262.7 106M257.1 97.7L257.1 118.6M262.7 106L257.1 118.6"/>
  <path class="l" d="M125.1 109.7L113.1 98.7L113.1 119.7L125.1 130.7Z"/>
  <path class="o" d="M125.1 109.7L125.1 130.7M113.1 98.7L113.1 119.7M125.1 130.7L113.1 119.7"/>
  <path class="r" d="M305.8 116.3L288.4 124.7L288.4 145.6L305.8 137.3Z"/>
  <path class="o" d="M305.8 116.3L305.8 137.3M288.4 124.7L288.4 145.6M305.8 137.3L288.4 145.6"/>
  <path class="l" d="M109.8 141L88.8 136.2L88.8 157.2L109.8 162Z"/>
  <path class="e" d="M109.8 141L109.8 162"/>
  <path class="o" d="M88.8 136.2L88.8 157.2M109.8 162L88.8 157.2"/>
  <path class="l" d="M113.2 153.4L109.8 141L109.8 162L113.2 174.4Z"/>
  <path class="o" d="M113.2 153.4L113.2 174.4M113.2 174.4L109.8 162"/>
  <path class="r" d="M312.8 141.9L308.9 156.3L308.9 177.3L312.8 162.8Z"/>
  <path class="o" d="M312.8 141.9L312.8 162.8M312.8 162.8L308.9 177.3"/>
  <path class="r" d="M308.9 156.3L286.3 157.1L286.3 178.1L308.9 177.3Z"/>
  <path class="e" d="M308.9 156.3L308.9 177.3"/>
  <path class="o" d="M308.9 177.3L286.3 178.1"/>
  <path class="r" d="M286.3 157.1L276.5 168.3L276.5 189.3L286.3 178.1Z"/>
  <path class="e" d="M286.3 157.1L286.3 178.1"/>
  <path class="o" d="M276.5 168.3L276.5 189.3M286.3 178.1L276.5 189.3"/>
  <path class="l" d="M107.3 174.7L95.8 161.7L95.8 182.7L107.3 195.7Z"/>
  <path class="e" d="M107.3 174.7L107.3 195.7"/>
  <path class="o" d="M95.8 161.7L95.8 182.7M107.3 195.7L95.8 182.7"/>
  <path class="r" d="M129.2 171.5L107.3 174.7L107.3 195.7L129.2 192.5Z"/>
  <path class="e" d="M129.2 171.5L129.2 192.5"/>
  <path class="o" d="M129.2 192.5L107.3 195.7"/>
  <path class="l" d="M144.5 180.4L129.2 171.5L129.2 192.5L144.5 201.4Z"/>
  <path class="o" d="M144.5 180.4L144.5 201.4M144.5 201.4L129.2 192.5"/>
  <path class="r" d="M288.5 179.3L270.6 189.7L270.6 210.6L288.5 200.3Z"/>
  <path class="o" d="M288.5 179.3L288.5 200.3M288.5 200.3L270.6 210.6"/>
  <path class="r" d="M251.5 182.7L232.2 188.4L232.2 209.4L251.5 203.7Z"/>
  <path class="e" d="M251.5 182.7L251.5 203.7"/>
  <path class="o" d="M251.5 203.7L232.2 209.4"/>
  <path class="l" d="M270.6 189.7L251.5 182.7L251.5 203.7L270.6 210.6Z"/>
  <path class="e" d="M270.6 189.7L270.6 210.6"/>
  <path class="o" d="M270.6 210.6L251.5 203.7"/>
  <path class="l" d="M197.4 191.6L175.9 189.6L175.9 210.6L197.4 212.6Z"/>
  <path class="e" d="M197.4 191.6L197.4 212.6"/>
  <path class="o" d="M197.4 212.6L175.9 210.6"/>
  <path class="r" d="M175.9 189.6L161.5 199.6L161.5 220.6L175.9 210.6Z"/>
  <path class="e" d="M175.9 189.6L175.9 210.6"/>
  <path class="o" d="M175.9 210.6L161.5 220.6"/>
  <path class="r" d="M232.2 188.4L230.7 201.4L230.7 222.4L232.2 209.4Z"/>
  <path class="e" d="M232.2 188.4L232.2 209.4"/>
  <path class="o" d="M232.2 209.4L230.7 222.4"/>
  <path class="l" d="M161.5 199.6L138.9 193L138.9 214L161.5 220.6Z"/>
  <path class="e" d="M161.5 199.6L161.5 220.6"/>
  <path class="o" d="M138.9 193L138.9 214M161.5 220.6L138.9 214"/>
  <path class="l" d="M205.7 203.7L197.4 191.6L197.4 212.6L205.7 224.7Z"/>
  <path class="e" d="M205.7 203.7L205.7 224.7"/>
  <path class="o" d="M205.7 224.7L197.4 212.6"/>
  <path class="r" d="M230.7 201.4L205.7 203.7L205.7 224.7L230.7 222.4Z"/>
  <path class="e" d="M230.7 201.4L230.7 222.4"/>
  <path class="o" d="M230.7 222.4L205.7 224.7"/>
  <path class="t" d="M276.5 168.3L288.5 179.3L270.6 189.7L251.5 182.7L232.2 188.4L230.7 201.4L205.7 203.7L197.4 191.6L175.9 189.6L161.5 199.6L138.9 193L144.5 180.4L129.2 171.5L107.3 174.7L95.8 161.7L113.2 153.4L109.8 141L88.8 136.2L92.7 121.7L115.3 120.9L125.1 109.7L113.1 98.7L131 88.4L150.1 95.3L169.4 89.6L170.9 76.6L195.9 74.3L204.2 86.5L225.7 88.4L240.1 78.4L262.7 85L257.1 97.7L272.4 106.5L294.3 103.3L305.8 116.3L288.4 124.7L291.8 137L312.8 141.9L308.9 156.3L286.3 157.1Z"/>
  <path class="o" d="M276.5 168.3L288.5 179.3L270.6 189.7L251.5 182.7L232.2 188.4L230.7 201.4L205.7 203.7L197.4 191.6L175.9 189.6L161.5 199.6L138.9 193L144.5 180.4L129.2 171.5L107.3 174.7L95.8 161.7L113.2 153.4L109.8 141L88.8 136.2L92.7 121.7L115.3 120.9L125.1 109.7L113.1 98.7L131 88.4L150.1 95.3L169.4 89.6L170.9 76.6L195.9 74.3L204.2 86.5L225.7 88.4L240.1 78.4L262.7 85L257.1 97.7L272.4 106.5L294.3 103.3L305.8 116.3L288.4 124.7L291.8 137L312.8 141.9L308.9 156.3L286.3 157.1Z"/>
  <path class="k" d="M212.9 124.3C211.2 125.3 211.2 126.9 212.9 127.9L220.1 132C221.8 133 224.6 133 226.3 132L240.2 124C241.7 123.2 244.1 123.4 244.6 124.6C247.4 130.4 244.1 136.6 236.2 140.5C228.3 144.4 217.1 145.3 207.7 142.8L172.2 163.3C168.5 165.4 162.5 165.4 158.8 163.3C155.1 161.1 155.1 157.7 158.8 155.5L194.2 135.1C189.9 129.6 191.5 123.2 198.3 118.6C205 114 215.8 112.1 225.8 113.7C227.8 114 228.2 115.4 226.8 116.3Z"/>
</svg>
