<svg xmlns="http://www.w3.org/2000/svg" width="400" height="320" viewBox="0 0 400 320" fill="none" role="img" aria-labelledby="fg-site-dark-title fg-site-dark-description" class="fg-site-dark">
  <title id="fg-site-dark-title">Site</title>
  <desc id="fg-site-dark-description">A parcel with two buildings and trees inside its dashed boundary line.</desc>
  <defs>
    <linearGradient id="fg-site-dark-cy" x1="0" y1="0" x2="1" y2="0"><stop stop-color="#121215"/><stop offset="1" stop-color="#0f0f12"/></linearGradient>
    
    
  </defs>
  <style>
    .fg-site-dark { stroke-linecap: round; stroke-linejoin: round; }
    .fg-site-dark path { vector-effect: non-scaling-stroke; }
    .fg-site-dark .t { fill: #0c0c0f; }
    .fg-site-dark .l { fill: #121215; }
    .fg-site-dark .r { fill: #0f0f12; }
    .fg-site-dark .hole { fill: #060607; }
    .fg-site-dark .cy { fill: url(#fg-site-dark-cy); }
    .fg-site-dark .af { fill: #bdbdc5; }
    .fg-site-dark .kf { fill: #8e8e97; }
    .fg-site-dark .eo { fill-rule: evenodd; }
    .fg-site-dark .o { stroke: #a1a1aa; stroke-width: 1.35; }
    .fg-site-dark .o2 { stroke: #71717a; stroke-width: 1.1; }
    .fg-site-dark .e { stroke: #3f3f46; stroke-width: 1; }
    .fg-site-dark .d { stroke: #71717a; stroke-width: 1.2; stroke-dasharray: 0 3; }
    .fg-site-dark .dh { stroke: #3f3f46; stroke-width: 1.2; stroke-dasharray: 0 3; }
    .fg-site-dark .g { stroke: #71717a; stroke-width: 1; stroke-dasharray: 3 3; }
    .fg-site-dark .k { stroke: #8e8e97; stroke-width: 1.2; }
    .fg-site-dark .ka, .fg-site-dark .oa { stroke: #bdbdc5; stroke-width: 1.35; }
    .fg-site-dark .da { stroke: #bdbdc5; stroke-width: 1.2; stroke-dasharray: 0 3; }
    .fg-site-dark .ga { stroke: #bdbdc5; stroke-width: 1; stroke-dasharray: 3 3; }
  </style>
  <path class="r" d="M376 189.6C376 191.2 374.9 192.7 373 193.8L231.2 275.6C229.3 276.8 226.7 277.4 224 277.4L224 282.9C226.7 282.9 229.3 282.3 231.2 281.2L373 199.3C374.9 198.2 376 196.7 376 195.2Z"/>
  <path class="l" d="M224 277.4C221.3 277.4 218.7 276.8 216.8 275.6L27 166C25.1 164.9 24 163.4 24 161.9L24 167.4C24 169 25.1 170.5 27 171.6L216.8 281.2C218.7 282.3 221.3 282.9 224 282.9Z"/>
  <path class="t" d="M24 161.9C24 160.3 25.1 158.8 27 157.7L168.8 75.9C170.7 74.8 173.3 74.1 176 74.1C178.7 74.1 181.3 74.8 183.2 75.9L373 185.5C374.9 186.6 376 188.1 376 189.6C376 191.2 374.9 192.7 373 193.8L231.2 275.6C229.3 276.8 226.7 277.4 224 277.4C221.3 277.4 218.7 276.8 216.8 275.6L27 166C25.1 164.9 24 163.4 24 161.9Z"/>
  <path class="e" d="M376 189.6C376 191.2 374.9 192.7 373 193.8L231.2 275.6C229.3 276.8 226.7 277.4 224 277.4C221.3 277.4 218.7 276.8 216.8 275.6L27 166C25.1 164.9 24 163.4 24 161.9M224 277.4L224 282.9M24 161.9L24 167.4"/>
  <path class="o" d="M24 161.9C24 160.3 25.1 158.8 27 157.7L168.8 75.9C170.7 74.8 173.3 74.1 176 74.1C178.7 74.1 181.3 74.8 183.2 75.9L373 185.5C374.9 186.6 376 188.1 376 189.6L376 195.2C376 196.7 374.9 198.2 373 199.3L231.2 281.2C229.3 282.3 226.7 282.9 224 282.9C221.3 282.9 218.7 282.3 216.8 281.2L27 171.6C25.1 170.5 24 169 24 167.4Z"/>
  <path class="ga" d="M227.6 265.2C226.7 265.8 225.4 266.1 224 266.1C222.7 266.1 221.4 265.8 220.4 265.2L45 164C44.1 163.4 43.5 162.7 43.5 161.9C43.5 161.1 44.1 160.4 45 159.8L172.4 86.3C173.3 85.7 174.6 85.4 176 85.4C177.3 85.4 178.6 85.7 179.6 86.3L355 187.5C355.9 188.1 356.5 188.8 356.5 189.6C356.5 190.4 355.9 191.2 355 191.7L227.6 265.2Z"/>
  <path class="r" d="M241.9 70C241.9 70.2 241.8 70.5 241.5 70.7L198.2 95.6C197.9 95.8 197.4 95.9 197 95.9L197 179.2C197.4 179.2 197.9 179.1 198.2 178.9L241.5 153.9C241.8 153.7 241.9 153.5 241.9 153.2Z"/>
  <path class="l" d="M197 95.9C196.5 95.9 196.1 95.8 195.8 95.6L140.5 63.7C140.2 63.5 140 63.3 140 63L140 146.3C140 146.5 140.2 146.8 140.5 147L195.8 178.9C196.1 179.1 196.5 179.2 197 179.2Z"/>
  <path class="t" d="M140 63C140 62.8 140.2 62.5 140.5 62.3L183.8 37.4C184.1 37.2 184.5 37.1 185 37.1C185.4 37.1 185.9 37.2 186.2 37.4L241.5 69.3C241.8 69.5 241.9 69.7 241.9 70C241.9 70.2 241.8 70.5 241.5 70.7L198.2 95.6C197.9 95.8 197.4 95.9 197 95.9C196.5 95.9 196.1 95.8 195.8 95.6L140.5 63.7C140.2 63.5 140 63.3 140 63Z"/>
  <path class="e" d="M241.9 70C241.9 70.2 241.8 70.5 241.5 70.7L198.2 95.6C197.9 95.8 197.4 95.9 197 95.9C196.5 95.9 196.1 95.8 195.8 95.6L140.5 63.7C140.2 63.5 140 63.3 140 63M197 95.9L197 179.2M140 63L140 146.3M241.9 132.4C241.9 132.7 241.8 132.9 241.5 133.1L198.2 158.1C197.9 158.3 197.4 158.4 197 158.4C196.5 158.4 196.1 158.3 195.8 158.1L140.5 126.2C140.2 126 140 125.7 140 125.5M241.9 111.6C241.9 111.9 241.8 112.1 241.5 112.3L198.2 137.3C197.9 137.4 197.4 137.5 197 137.5C196.5 137.5 196.1 137.4 195.8 137.3L140.5 105.3C140.2 105.2 140 104.9 140 104.7M241.9 90.8C241.9 91 241.8 91.3 241.5 91.5L198.2 116.4C197.9 116.6 197.4 116.7 197 116.7C196.5 116.7 196.1 116.6 195.8 116.4L140.5 84.5C140.2 84.4 140 84.1 140 83.8"/>
  <path class="o" d="M140 63C140 62.8 140.2 62.5 140.5 62.3L183.8 37.4C184.1 37.2 184.5 37.1 185 37.1C185.4 37.1 185.9 37.2 186.2 37.4L241.5 69.3C241.8 69.5 241.9 69.7 241.9 70L241.9 153.2C241.9 153.5 241.8 153.7 241.5 153.9L198.2 178.9C197.9 179.1 197.4 179.2 197 179.2C196.5 179.2 196.1 179.1 195.8 178.9L140.5 147C140.2 146.8 140 146.5 140 146.3Z"/>
  <path class="r" d="M96 156.8C96 157.2 95.7 157.5 95.3 157.8C94.9 158 94.3 158.1 93.7 158.1L93.7 165.6C94.3 165.6 94.9 165.5 95.3 165.2C95.7 165 96 164.7 96 164.3Z"/>
  <path class="l" d="M93.7 158.1C93.1 158.1 92.5 158 92 157.8C91.6 157.5 91.4 157.2 91.4 156.8L91.4 164.3C91.4 164.7 91.6 165 92 165.2C92.5 165.5 93.1 165.6 93.7 165.6Z"/>
  <path class="t" d="M91.4 156.8C91.4 156.5 91.6 156.1 92 155.9C92.5 155.6 93.1 155.5 93.7 155.5C94.3 155.5 94.9 155.6 95.3 155.9C95.7 156.1 96 156.5 96 156.8C96 157.2 95.7 157.5 95.3 157.8C94.9 158 94.3 158.1 93.7 158.1C93.1 158.1 92.5 158 92 157.8C91.6 157.5 91.4 157.2 91.4 156.8Z"/>
  <path class="e" d="M96 156.8C96 157.2 95.7 157.5 95.3 157.8C94.9 158 94.3 158.1 93.7 158.1C93.1 158.1 92.5 158 92 157.8C91.6 157.5 91.4 157.2 91.4 156.8M93.7 158.1L93.7 165.6M91.4 156.8L91.4 164.3"/>
  <path class="o2" d="M91.4 156.8C91.4 156.5 91.6 156.1 92 155.9C92.5 155.6 93.1 155.5 93.7 155.5C94.3 155.5 94.9 155.6 95.3 155.9C95.7 156.1 96 156.5 96 156.8L96 164.3C96 164.7 95.7 165 95.3 165.2C94.9 165.5 94.3 165.6 93.7 165.6C93.1 165.6 92.5 165.5 92 165.2C91.6 165 91.4 164.7 91.4 164.3Z"/>
  <path class="cy" d="M93.7 140.6L106.8 154.4L107.4 155.3L107.8 156.2L108 156.6L108.1 157.1L108.2 157.6L108.2 158.1L108.1 158.9L107.9 159.7L107.6 160.5L107.1 161.3L106.5 162L105.8 162.7L104.9 163.4L103.9 164L102.9 164.5L101.7 165L100.5 165.5L99.2 165.8L98 166.1L96.5 166.3L95.1 166.4L93.7 166.5L93.7 166.5L92.2 166.4L90.8 166.3L89.4 166.1L88.2 165.8L86.8 165.5L85.6 165L84.4 164.5L83.4 164L82.4 163.4L81.6 162.7L80.8 162L80.2 161.3L79.7 160.5L79.4 159.7L79.2 158.9L79.1 158.1L79.2 157.6L79.2 157.1L79.3 156.6L79.5 156.2L79.9 155.3L80.6 154.4L93.7 140.6Z"/>
  <path class="o2" d="M93.7 140.6L106.8 154.4L107.4 155.3L107.8 156.2L108 156.6L108.1 157.1L108.2 157.6L108.2 158.1L108.1 158.9L107.9 159.7L107.6 160.5L107.1 161.3L106.5 162L105.8 162.7L104.9 163.4L103.9 164L102.9 164.5L101.7 165L100.5 165.5L99.2 165.8L98 166.1L96.5 166.3L95.1 166.4L93.7 166.5L93.7 166.5L92.2 166.4L90.8 166.3L89.4 166.1L88.2 165.8L86.8 165.5L85.6 165L84.4 164.5L83.4 164L82.4 163.4L81.6 162.7L80.8 162L80.2 161.3L79.7 160.5L79.4 159.7L79.2 158.9L79.1 158.1L79.2 157.6L79.2 157.1L79.3 156.6L79.5 156.2L79.9 155.3L80.6 154.4L93.7 140.6Z"/>
  <path class="cy" d="M93.7 129.3L103.8 146.2L104.1 146.6L104.2 147.1L104.3 147.6L104.4 148.1L104.3 148.7L104.2 149.3L103.9 149.9L103.6 150.4L103.1 151L102.6 151.5L102 152L101.3 152.4L100.5 152.8L99.6 153.2L98.6 153.6L97.7 153.8L96.7 154L95.8 154.1L94.9 154.2L93.7 154.3L93.7 154.3L92.4 154.2L91.5 154.1L90.7 154L89.6 153.8L88.7 153.6L87.7 153.2L86.9 152.8L86.1 152.4L85.3 152L84.8 151.5L84.2 151L83.8 150.4L83.4 149.9L83.2 149.3L83 148.7L83 148.1L83 147.6L83.1 147.1L83.3 146.6L83.5 146.2L93.7 129.3Z"/>
  <path class="o2" d="M93.7 129.3L103.8 146.2L104.1 146.6L104.2 147.1L104.3 147.6L104.4 148.1L104.3 148.7L104.2 149.3L103.9 149.9L103.6 150.4L103.1 151L102.6 151.5L102 152L101.3 152.4L100.5 152.8L99.6 153.2L98.6 153.6L97.7 153.8L96.7 154L95.8 154.1L94.9 154.2L93.7 154.3L93.7 154.3L92.4 154.2L91.5 154.1L90.7 154L89.6 153.8L88.7 153.6L87.7 153.2L86.9 152.8L86.1 152.4L85.3 152L84.8 151.5L84.2 151L83.8 150.4L83.4 149.9L83.2 149.3L83 148.7L83 148.1L83 147.6L83.1 147.1L83.3 146.6L83.5 146.2L93.7 129.3Z"/>
  <path class="r" d="M118.2 183.5C118.2 183.9 117.9 184.2 117.5 184.5C117.1 184.7 116.5 184.9 115.9 184.9L115.9 192.3C116.5 192.3 117.1 192.2 117.5 192C117.9 191.7 118.2 191.4 118.2 191Z"/>
  <path class="l" d="M115.9 184.9C115.3 184.9 114.7 184.7 114.3 184.5C113.8 184.2 113.6 183.9 113.6 183.5L113.6 191C113.6 191.4 113.8 191.7 114.3 192C114.7 192.2 115.3 192.3 115.9 192.3Z"/>
  <path class="t" d="M113.6 183.5C113.6 183.2 113.8 182.8 114.3 182.6C114.7 182.3 115.3 182.2 115.9 182.2C116.5 182.2 117.1 182.3 117.5 182.6C117.9 182.8 118.2 183.2 118.2 183.5C118.2 183.9 117.9 184.2 117.5 184.5C117.1 184.7 116.5 184.9 115.9 184.9C115.3 184.9 114.7 184.7 114.3 184.5C113.8 184.2 113.6 183.9 113.6 183.5Z"/>
  <path class="e" d="M118.2 183.5C118.2 183.9 117.9 184.2 117.5 184.5C117.1 184.7 116.5 184.9 115.9 184.9C115.3 184.9 114.7 184.7 114.3 184.5C113.8 184.2 113.6 183.9 113.6 183.5M115.9 184.9L115.9 192.3M113.6 183.5L113.6 191"/>
  <path class="o2" d="M113.6 183.5C113.6 183.2 113.8 182.8 114.3 182.6C114.7 182.3 115.3 182.2 115.9 182.2C116.5 182.2 117.1 182.3 117.5 182.6C117.9 182.8 118.2 183.2 118.2 183.5L118.2 191C118.2 191.4 117.9 191.7 117.5 192C117.1 192.2 116.5 192.3 115.9 192.3C115.3 192.3 114.7 192.2 114.3 192C113.8 191.7 113.6 191.4 113.6 191Z"/>
  <path class="cy" d="M115.9 167.3L129 181.1L129.6 182L130.1 182.9L130.2 183.3L130.3 183.8L130.4 184.3L130.4 184.8L130.4 185.6L130.2 186.4L129.8 187.2L129.3 188L128.7 188.7L128 189.4L127.1 190.1L126.2 190.7L125.1 191.3L124 191.8L122.8 192.2L121.4 192.5L120.2 192.8L118.8 193L117.3 193.1L115.9 193.2L115.9 193.2L114.5 193.1L113 193L111.6 192.8L110.4 192.5L109 192.2L107.8 191.8L106.7 191.3L105.6 190.7L104.6 190.1L103.8 189.4L103.1 188.7L102.5 188L102 187.2L101.6 186.4L101.4 185.6L101.4 184.8L101.4 184.3L101.5 183.8L101.6 183.3L101.7 182.9L102.2 182L102.8 181.1L115.9 167.3Z"/>
  <path class="o2" d="M115.9 167.3L129 181.1L129.6 182L130.1 182.9L130.2 183.3L130.3 183.8L130.4 184.3L130.4 184.8L130.4 185.6L130.2 186.4L129.8 187.2L129.3 188L128.7 188.7L128 189.4L127.1 190.1L126.2 190.7L125.1 191.3L124 191.8L122.8 192.2L121.4 192.5L120.2 192.8L118.8 193L117.3 193.1L115.9 193.2L115.9 193.2L114.5 193.1L113 193L111.6 192.8L110.4 192.5L109 192.2L107.8 191.8L106.7 191.3L105.6 190.7L104.6 190.1L103.8 189.4L103.1 188.7L102.5 188L102 187.2L101.6 186.4L101.4 185.6L101.4 184.8L101.4 184.3L101.5 183.8L101.6 183.3L101.7 182.9L102.2 182L102.8 181.1L115.9 167.3Z"/>
  <path class="cy" d="M115.9 156.1L126.1 172.9L126.3 173.3L126.5 173.8L126.6 174.3L126.6 174.8L126.6 175.4L126.4 176L126.2 176.6L125.8 177.1L125.4 177.7L124.8 178.2L124.2 178.7L123.5 179.1L122.7 179.6L121.8 179.9L120.9 180.3L119.9 180.5L118.9 180.7L118 180.8L117.1 180.9L115.9 181L115.9 181L114.7 180.9L113.8 180.8L112.9 180.7L111.9 180.5L110.9 180.3L110 179.9L109.1 179.6L108.3 179.1L107.6 178.7L107 178.2L106.4 177.7L106 177.1L105.6 176.6L105.4 176L105.2 175.4L105.2 174.8L105.2 174.3L105.3 173.8L105.5 173.3L105.7 172.9L115.9 156.1Z"/>
  <path class="o2" d="M115.9 156.1L126.1 172.9L126.3 173.3L126.5 173.8L126.6 174.3L126.6 174.8L126.6 175.4L126.4 176L126.2 176.6L125.8 177.1L125.4 177.7L124.8 178.2L124.2 178.7L123.5 179.1L122.7 179.6L121.8 179.9L120.9 180.3L119.9 180.5L118.9 180.7L118 180.8L117.1 180.9L115.9 181L115.9 181L114.7 180.9L113.8 180.8L112.9 180.7L111.9 180.5L110.9 180.3L110 179.9L109.1 179.6L108.3 179.1L107.6 178.7L107 178.2L106.4 177.7L106 177.1L105.6 176.6L105.4 176L105.2 175.4L105.2 174.8L105.2 174.3L105.3 173.8L105.5 173.3L105.7 172.9L115.9 156.1Z"/>
  <path class="r" d="M316.4 185.6C316.4 186 316.2 186.3 315.8 186.5C315.3 186.8 314.7 186.9 314.1 186.9L314.1 194.4C314.7 194.4 315.3 194.3 315.8 194C316.2 193.8 316.4 193.4 316.4 193.1Z"/>
  <path class="l" d="M314.1 186.9C313.5 186.9 312.9 186.8 312.5 186.5C312.1 186.3 311.8 186 311.8 185.6L311.8 193.1C311.8 193.4 312.1 193.8 312.5 194C312.9 194.3 313.5 194.4 314.1 194.4Z"/>
  <path class="t" d="M311.8 185.6C311.8 185.3 312.1 184.9 312.5 184.7C312.9 184.4 313.5 184.3 314.1 184.3C314.7 184.3 315.3 184.4 315.8 184.7C316.2 184.9 316.4 185.3 316.4 185.6C316.4 186 316.2 186.3 315.8 186.5C315.3 186.8 314.7 186.9 314.1 186.9C313.5 186.9 312.9 186.8 312.5 186.5C312.1 186.3 311.8 186 311.8 185.6Z"/>
  <path class="e" d="M316.4 185.6C316.4 186 316.2 186.3 315.8 186.5C315.3 186.8 314.7 186.9 314.1 186.9C313.5 186.9 312.9 186.8 312.5 186.5C312.1 186.3 311.8 186 311.8 185.6M314.1 186.9L314.1 194.4M311.8 185.6L311.8 193.1"/>
  <path class="o2" d="M311.8 185.6C311.8 185.3 312.1 184.9 312.5 184.7C312.9 184.4 313.5 184.3 314.1 184.3C314.7 184.3 315.3 184.4 315.8 184.7C316.2 184.9 316.4 185.3 316.4 185.6L316.4 193.1C316.4 193.4 316.2 193.8 315.8 194C315.3 194.3 314.7 194.4 314.1 194.4C313.5 194.4 312.9 194.3 312.5 194C312.1 193.8 311.8 193.4 311.8 193.1Z"/>
  <path class="cy" d="M314.1 169.4L327.2 183.2L327.9 184.1L328.3 185L328.5 185.4L328.6 185.9L328.7 186.3L328.7 186.8L328.6 187.7L328.4 188.5L328.1 189.3L327.6 190L327 190.8L326.2 191.5L325.4 192.2L324.4 192.8L323.4 193.3L322.2 193.8L321 194.2L319.6 194.6L318.4 194.9L317 195.1L315.6 195.2L314.1 195.2L314.1 195.2L312.7 195.2L311.3 195.1L309.8 194.9L308.6 194.6L307.3 194.2L306.1 193.8L304.9 193.3L303.9 192.8L302.9 192.2L302 191.5L301.3 190.8L300.7 190L300.2 189.3L299.9 188.5L299.7 187.7L299.6 186.8L299.6 186.3L299.7 185.9L299.8 185.4L300 185L300.4 184.1L301 183.2L314.1 169.4Z"/>
  <path class="o2" d="M314.1 169.4L327.2 183.2L327.9 184.1L328.3 185L328.5 185.4L328.6 185.9L328.7 186.3L328.7 186.8L328.6 187.7L328.4 188.5L328.1 189.3L327.6 190L327 190.8L326.2 191.5L325.4 192.2L324.4 192.8L323.4 193.3L322.2 193.8L321 194.2L319.6 194.6L318.4 194.9L317 195.1L315.6 195.2L314.1 195.2L314.1 195.2L312.7 195.2L311.3 195.1L309.8 194.9L308.6 194.6L307.3 194.2L306.1 193.8L304.9 193.3L303.9 192.8L302.9 192.2L302 191.5L301.3 190.8L300.7 190L300.2 189.3L299.9 188.5L299.7 187.7L299.6 186.8L299.6 186.3L299.7 185.9L299.8 185.4L300 185L300.4 184.1L301 183.2L314.1 169.4Z"/>
  <path class="cy" d="M314.1 158.1L324.3 174.9L324.5 175.4L324.7 175.9L324.8 176.4L324.9 176.9L324.8 177.5L324.7 178.1L324.4 178.6L324 179.2L323.6 179.8L323 180.3L322.5 180.8L321.7 181.2L321 181.6L320.1 182L319.1 182.3L318.2 182.6L317.2 182.8L316.3 182.9L315.4 183L314.1 183.1L314.1 183.1L312.9 183L312 182.9L311.1 182.8L310.1 182.6L309.2 182.3L308.2 182L307.3 181.6L306.5 181.2L305.8 180.8L305.2 180.3L304.7 179.8L304.2 179.2L303.9 178.6L303.6 178.1L303.5 177.5L303.4 176.9L303.5 176.4L303.6 175.9L303.7 175.4L304 174.9L314.1 158.1Z"/>
  <path class="o2" d="M314.1 158.1L324.3 174.9L324.5 175.4L324.7 175.9L324.8 176.4L324.9 176.9L324.8 177.5L324.7 178.1L324.4 178.6L324 179.2L323.6 179.8L323 180.3L322.5 180.8L321.7 181.2L321 181.6L320.1 182L319.1 182.3L318.2 182.6L317.2 182.8L316.3 182.9L315.4 183L314.1 183.1L314.1 183.1L312.9 183L312 182.9L311.1 182.8L310.1 182.6L309.2 182.3L308.2 182L307.3 181.6L306.5 181.2L305.8 180.8L305.2 180.3L304.7 179.8L304.2 179.2L303.9 178.6L303.6 178.1L303.5 177.5L303.4 176.9L303.5 176.4L303.6 175.9L303.7 175.4L304 174.9L314.1 158.1Z"/>
  <path class="r" d="M270.2 166C270.2 166.3 270 166.6 269.7 166.7L233.6 187.5C233.3 187.7 232.9 187.8 232.4 187.8L232.4 233.6C232.9 233.6 233.3 233.5 233.6 233.3L269.7 212.5C270 212.3 270.2 212.1 270.2 211.8Z"/>
  <path class="l" d="M232.4 187.8C232 187.8 231.6 187.7 231.2 187.5L190.4 164C190.1 163.8 189.9 163.5 189.9 163.3L189.9 209.1C189.9 209.3 190.1 209.6 190.4 209.7L231.2 233.3C231.6 233.5 232 233.6 232.4 233.6Z"/>
  <path class="t" d="M189.9 163.3C189.9 163 190.1 162.8 190.4 162.6L226.4 141.8C226.8 141.6 227.2 141.5 227.6 141.5C228.1 141.5 228.5 141.6 228.8 141.8L269.7 165.4C270 165.5 270.2 165.8 270.2 166C270.2 166.3 270 166.6 269.7 166.7L233.6 187.5C233.3 187.7 232.9 187.8 232.4 187.8C232 187.8 231.6 187.7 231.2 187.5L190.4 164C190.1 163.8 189.9 163.5 189.9 163.3Z"/>
  <path class="e" d="M270.2 166C270.2 166.3 270 166.6 269.7 166.7L233.6 187.5C233.3 187.7 232.9 187.8 232.4 187.8C232 187.8 231.6 187.7 231.2 187.5L190.4 164C190.1 163.8 189.9 163.5 189.9 163.3M232.4 187.8L232.4 233.6M189.9 163.3L189.9 209.1M270.2 188.9C270.2 189.2 270 189.4 269.7 189.6L233.6 210.4C233.3 210.6 232.9 210.7 232.4 210.7C232 210.7 231.6 210.6 231.2 210.4L190.4 186.9C190.1 186.7 189.9 186.4 189.9 186.2"/>
  <path class="o2" d="M189.9 163.3C189.9 163 190.1 162.8 190.4 162.6L226.4 141.8C226.8 141.6 227.2 141.5 227.6 141.5C228.1 141.5 228.5 141.6 228.8 141.8L269.7 165.4C270 165.5 270.2 165.8 270.2 166L270.2 211.8C270.2 212.1 270 212.3 269.7 212.5L233.6 233.3C233.3 233.5 232.9 233.6 232.4 233.6C232 233.6 231.6 233.5 231.2 233.3L190.4 209.7C190.1 209.6 189.9 209.3 189.9 209.1Z"/>
</svg>
